<svg width="33" height="34" viewBox="0 0 33 34" fill="none" xmlns="http://www.w3.org/2000/svg">
<g clip-path="url(#clip0_2_99)">
<path d="M28.027 5.18625C24.9429 2.10228 20.8425 0.403809 16.481 0.403809C12.1195 0.403809 8.01912 2.10228 4.93503 5.18625C1.85106 8.27034 0.152588 12.3707 0.152588 16.7322C0.152588 21.0937 1.85106 25.1941 4.93503 28.2782C8.01912 31.3621 12.1195 33.0606 16.481 33.0606C20.8425 33.0606 24.9429 31.3621 28.027 28.2782C31.1109 25.1941 32.8094 21.0937 32.8094 16.7322C32.8094 12.3707 31.1109 8.27034 28.027 5.18625V5.18625ZM27.3504 27.6016C25.176 29.7761 22.4649 31.2186 19.5158 31.806V21.3009H21.706C22.161 21.3009 22.5558 20.9927 22.6661 20.5513L23.4331 17.4835C23.5076 17.1858 23.4419 16.8763 23.253 16.6344C23.0642 16.3926 22.7799 16.2538 22.473 16.2538H19.0375C18.7734 16.2538 18.5592 16.468 18.5592 16.7322C18.5592 16.9964 18.7734 17.2106 19.0375 17.2106H22.473C22.4778 17.2106 22.489 17.2106 22.499 17.2233C22.5089 17.2359 22.5061 17.2469 22.505 17.2515L21.738 20.3193C21.7343 20.334 21.7212 20.3442 21.7061 20.3442H19.0375C18.7734 20.3442 18.5592 20.5584 18.5592 20.8226V31.9645C17.8758 32.0561 17.1821 32.1039 16.481 32.1039C12.375 32.1039 8.5149 30.505 5.61157 27.6016C2.70824 24.6983 1.10933 20.8382 1.10933 16.7322C1.10933 12.6263 2.70824 8.76612 5.61157 5.86279C8.5149 2.95946 12.375 1.36055 16.481 1.36055C20.587 1.36055 24.4471 2.95946 27.3504 5.86279C30.2538 8.76612 31.8527 12.6263 31.8527 16.7322C31.8527 20.8382 30.2538 24.6983 27.3504 27.6016V27.6016Z" fill="black"/>
<path d="M22.6164 6.53906H19.5487C16.1837 6.53906 13.4461 9.27669 13.4461 12.6417V16.2536H10.3455C9.79973 16.2536 9.3558 16.6976 9.3558 17.2433V20.3111C9.3558 20.8568 9.79973 21.3007 10.3455 21.3007H13.4461V30.0256C13.4461 30.2898 13.6603 30.504 13.9245 30.504C14.1887 30.504 14.4029 30.2898 14.4029 30.0256V20.8223C14.4029 20.5582 14.1887 20.344 13.9245 20.344H10.3455C10.3273 20.344 10.3125 20.3292 10.3125 20.3111V17.2433C10.3125 17.2251 10.3273 17.2104 10.3455 17.2104H13.9245C14.1887 17.2104 14.4029 16.9962 14.4029 16.732V12.6417C14.4029 9.80423 16.7113 7.49581 19.5487 7.49581H22.6164C22.6346 7.49581 22.6494 7.51054 22.6494 7.52872V10.5965C22.6494 10.6147 22.6346 10.6294 22.6164 10.6294H20.5713C19.4617 10.6294 18.5591 11.532 18.5591 12.6416V14.6867C18.5591 14.9509 18.7733 15.1651 19.0375 15.1651C19.3017 15.1651 19.5158 14.9509 19.5158 14.6867V12.6416C19.5158 12.0596 19.9893 11.5861 20.5713 11.5861H22.6164C23.1622 11.5861 23.6061 11.1422 23.6061 10.5965V7.52872C23.6061 6.98305 23.1622 6.53906 22.6164 6.53906Z" fill="black"/>
</g>
<defs>
<clipPath id="clip0_2_99">
<rect width="32.6568" height="32.6568" fill="white" transform="translate(0.152588 0.403809)"/>
</clipPath>
</defs>
</svg>
