<svg width="36" height="36" viewBox="0 0 36 36" fill="none" xmlns="http://www.w3.org/2000/svg">
<g clip-path="url(#clip0_2_103)">
<path d="M18.0763 0.608887C8.41659 0.608887 0.585663 8.43981 0.585663 18.0995C0.585663 27.7592 8.41659 35.5901 18.0763 35.5901C27.736 35.5901 35.5669 27.7592 35.5669 18.0995C35.5561 8.44437 27.7314 0.619705 18.0763 0.608887ZM18.0763 34.4241C9.06053 34.4241 1.7517 27.1153 1.7517 18.0995C1.7517 9.08375 9.06053 1.77493 18.0763 1.77493C27.092 1.77493 34.4009 9.08375 34.4009 18.0995C34.3906 27.111 27.0878 34.4138 18.0763 34.4241Z" fill="black"/>
<path d="M25.6556 7.60498H10.497C8.88773 7.60697 7.5839 8.9108 7.58191 10.5201V25.6786C7.5839 27.2879 8.88773 28.5917 10.497 28.5937H25.6556C27.2648 28.5917 28.5687 27.2879 28.5707 25.6786V10.5201C28.5687 8.9108 27.2648 7.60697 25.6556 7.60498ZM27.4046 25.6786C27.4046 26.6445 26.6215 27.4277 25.6556 27.4277H10.497C9.5311 27.4277 8.74795 26.6445 8.74795 25.6786V10.5201C8.74795 9.55417 9.5311 8.77102 10.497 8.77102H25.6556C26.6215 8.77102 27.4046 9.55417 27.4046 10.5201V25.6786Z" fill="black"/>
<path d="M18.0763 12.2695C14.8563 12.2695 12.2461 14.8797 12.2461 18.0997C12.2461 21.3197 14.8563 23.9299 18.0763 23.9299C21.2963 23.9299 23.9065 21.3197 23.9065 18.0997C23.9031 14.8812 21.2949 12.2729 18.0763 12.2695ZM18.0763 22.7639C15.5002 22.7639 13.4121 20.6758 13.4121 18.0997C13.4121 15.5237 15.5002 13.4356 18.0763 13.4356C20.6524 13.4356 22.7405 15.5237 22.7405 18.0997C22.7376 20.6744 20.6509 22.7611 18.0763 22.7639Z" fill="black"/>
<path d="M24.4895 9.93701C23.5236 9.93701 22.7404 10.7202 22.7404 11.6861C22.7404 12.652 23.5236 13.4351 24.4895 13.4351C25.4554 13.4351 26.2386 12.652 26.2386 11.6861C26.2386 10.7202 25.4554 9.93701 24.4895 9.93701ZM24.4895 12.2691C24.1675 12.2691 23.9065 12.008 23.9065 11.6861C23.9065 11.3641 24.1675 11.1031 24.4895 11.1031C24.8115 11.1031 25.0725 11.3641 25.0725 11.6861C25.0725 12.008 24.8115 12.2691 24.4895 12.2691Z" fill="black"/>
</g>
<defs>
<clipPath id="clip0_2_103">
<rect width="34.9812" height="34.9812" fill="white" transform="translate(0.585663 0.608887)"/>
</clipPath>
</defs>
</svg>
