<svg width="33" height="34" viewBox="0 0 33 34" fill="none" xmlns="http://www.w3.org/2000/svg">
<g clip-path="url(#clip0_2_108)">
<path d="M28.2177 5.1865C25.1337 2.10235 21.0331 0.403809 16.6716 0.403809C12.3104 0.403809 8.21005 2.10235 5.12589 5.1865C2.04174 8.27066 0.343201 12.371 0.343201 16.7322C0.343201 21.0942 2.04174 25.1948 5.12589 28.2787C8.20986 31.3624 12.3102 33.0606 16.6716 33.0606C21.0334 33.0606 25.1339 31.3624 28.2176 28.2787C31.3016 25.1949 33 21.0943 33 16.7322C33 12.3709 31.3016 8.27053 28.2177 5.1865ZM27.4961 27.5571C24.605 30.448 20.7608 32.0401 16.6716 32.0401C12.5827 32.0401 8.73868 30.448 5.84747 27.5571C2.95606 24.6659 1.36373 20.8215 1.36373 16.7322C1.36373 12.6436 2.95606 8.79954 5.84747 5.90808C8.73894 3.01667 12.583 1.42433 16.6716 1.42433C20.7606 1.42433 24.6048 3.01667 27.4961 5.90808C30.3873 8.79942 31.9795 12.6435 31.9795 16.7322C31.9795 20.8217 30.3873 24.666 27.4961 27.5571Z" fill="black"/>
<path d="M25.7705 12.8267C25.8965 12.6379 25.8826 12.3887 25.7365 12.215C25.5905 12.0414 25.3473 11.9851 25.1397 12.0768C25.1267 12.0825 25.1137 12.0882 25.1007 12.0939C25.2207 11.8786 25.3199 11.6506 25.396 11.4129C25.4607 11.211 25.3938 10.9902 25.2279 10.8581C25.0621 10.726 24.8319 10.7103 24.6496 10.8185C24.1348 11.1241 23.5839 11.3487 23.0087 11.488C22.32 10.8644 21.414 10.5117 20.48 10.5117C18.409 10.5117 16.724 12.1957 16.724 14.2657C16.724 14.3248 16.7254 14.3839 16.728 14.4427C14.5046 14.1717 12.4524 13.045 11.0248 11.2929C10.919 11.1631 10.7565 11.0934 10.5894 11.1065C10.4225 11.1196 10.2726 11.2136 10.1883 11.3583C9.85576 11.9291 9.67997 12.582 9.67997 13.2464C9.67997 13.8812 9.83854 14.4929 10.1298 15.0328C10.0516 15.038 9.97446 15.0612 9.90474 15.1022C9.74892 15.194 9.65331 15.3612 9.65331 15.542V15.5826C9.65331 16.7067 10.1577 17.7382 10.9683 18.4349C10.9507 18.45 10.9341 18.4665 10.9185 18.4841C10.7999 18.6188 10.7608 18.8059 10.8155 18.9769C11.1642 20.0664 11.9795 20.9116 13.001 21.3186C12.1717 21.7355 11.2562 21.9521 10.302 21.9521C10.0614 21.9521 9.8208 21.9384 9.58691 21.9111C9.35104 21.8836 9.12729 22.0226 9.04744 22.2463C8.96752 22.47 9.05254 22.7192 9.25243 22.8475C10.8221 23.8543 12.6376 24.3864 14.5027 24.3864C18.1673 24.3864 20.4616 22.6563 21.7409 21.2049C23.3335 19.3982 24.2468 17.0063 24.2468 14.6423C24.2468 14.584 24.2464 14.5272 24.2454 14.4716C24.8387 14.0078 25.351 13.4555 25.7705 12.8267ZM23.4282 13.8093C23.288 13.9104 23.2085 14.0756 23.217 14.2483C23.2232 14.374 23.2262 14.5028 23.2262 14.6423C23.2262 16.7612 22.4058 18.9072 20.9753 20.5301C19.835 21.8237 17.7865 23.3659 14.5027 23.3659C13.4981 23.3659 12.5095 23.1933 11.5753 22.8596C12.6922 22.658 13.737 22.1895 14.6467 21.4758C14.8165 21.3426 14.8841 21.117 14.8156 20.9123C14.747 20.7077 14.5571 20.5682 14.3413 20.5642C13.443 20.5473 12.6299 20.0945 12.1391 19.3819C12.3951 19.3664 12.6497 19.3248 12.8987 19.2575C13.1272 19.1958 13.2833 18.985 13.2757 18.7484C13.2681 18.5119 13.0987 18.3116 12.8668 18.2647C11.8502 18.0594 11.0568 17.2963 10.78 16.335C11.053 16.4071 11.3342 16.4488 11.6168 16.4583C11.845 16.466 12.0499 16.3214 12.1196 16.1044C12.1894 15.8874 12.1067 15.6504 11.9171 15.5238C11.1554 15.0155 10.7007 14.1641 10.7007 13.2463C10.7007 13.0138 10.7302 12.7833 10.7876 12.5606C12.4975 14.3263 14.8256 15.3917 17.2931 15.5147C17.4542 15.5227 17.6075 15.455 17.7102 15.3321C17.8129 15.2091 17.8518 15.0451 17.8154 14.8891C17.7685 14.6882 17.7447 14.4784 17.7447 14.2656C17.7447 12.7584 18.9719 11.5322 20.4802 11.5322C21.2331 11.5322 21.961 11.8467 22.4775 12.395C22.5977 12.5225 22.775 12.5796 22.9468 12.5459C23.1401 12.5081 23.3313 12.4623 23.52 12.4084C23.4254 12.4836 23.3253 12.553 23.2204 12.6157C23.014 12.7393 22.922 12.9903 22.9996 13.218C23.0771 13.4457 23.303 13.5885 23.5421 13.5603C23.6252 13.5505 23.7081 13.5393 23.7907 13.5265C23.6737 13.6251 23.5528 13.7194 23.4282 13.8093Z" fill="black"/>
</g>
<defs>
<clipPath id="clip0_2_108">
<rect width="32.6568" height="32.6568" fill="white" transform="translate(0.343201 0.403809)"/>
</clipPath>
</defs>
</svg>
